<?xml version="1.0" encoding="iso-8859-1"?>
<!-- Generator: Adobe Illustrator 19.0.0, SVG Export Plug-In . SVG Version: 6.00 Build 0)  -->
<svg version="1.1" id="Capa_1" xmlns="http://www.w3.org/2000/svg" xmlns:xlink="http://www.w3.org/1999/xlink" x="0px" y="0px"
	 viewBox="0 0 512 512" style="enable-background:new 0 0 512 512;" xml:space="preserve">
<g>
	<g>
		<g>
			<path d="M256,0C114.844,0,0,114.844,0,256s114.844,256,256,256s256-114.844,256-256S397.156,0,256,0z M256,490.667
				C126.604,490.667,21.333,385.396,21.333,256S126.604,21.333,256,21.333S490.667,126.604,490.667,256S385.396,490.667,256,490.667
				z"/>
			<path d="M256,405.333c-56.755,0-111.544-43.818-127.612-100.546c6.318-7.441,10.279-16.948,10.279-27.454
				c0-5.896-4.771-10.667-10.667-10.667s-10.667,4.771-10.667,10.667c0,11.76-9.573,21.333-21.333,21.333
				c-5.896,0-10.667,4.771-10.667,10.667C85.333,315.229,90.104,320,96,320c4.802,0,9.341-0.974,13.651-2.443
				C130.63,379.701,192.413,426.667,256,426.667c5.896,0,10.667-4.771,10.667-10.667C266.667,410.104,261.896,405.333,256,405.333z"
				/>
			<path d="M101.917,211.542L160,172.823l58.083,38.719c1.823,1.208,3.875,1.792,5.906,1.792c3.448,0,6.833-1.667,8.885-4.75
				c3.271-4.906,1.948-11.521-2.958-14.792l-64-42.667c-3.583-2.396-8.25-2.396-11.833,0l-64,42.667
				c-4.906,3.271-6.229,9.885-2.958,14.792C90.365,213.479,96.979,214.792,101.917,211.542z"/>
			<path d="M421.917,193.792l-64-42.667c-3.583-2.396-8.25-2.396-11.833,0l-64,42.667c-4.906,3.271-6.229,9.885-2.958,14.792
				c3.26,4.896,9.844,6.208,14.792,2.958L352,172.823l58.083,38.719c1.823,1.208,3.875,1.792,5.906,1.792
				c3.448,0,6.833-1.667,8.885-4.75C428.146,203.677,426.823,197.063,421.917,193.792z"/>
		</g>
	</g>
</g>
<g>
</g>
<g>
</g>
<g>
</g>
<g>
</g>
<g>
</g>
<g>
</g>
<g>
</g>
<g>
</g>
<g>
</g>
<g>
</g>
<g>
</g>
<g>
</g>
<g>
</g>
<g>
</g>
<g>
</g>
</svg>
